<svg width="434" height="94" viewBox="0 0 434 94" fill="none" xmlns="http://www.w3.org/2000/svg">
<path d="M42.2595 67.9602L59.3793 18L76.6527 67.9602L59.3793 58.3264L42.2595 67.9602Z" fill="url(#paint0_linear_32_47)"/>
<path d="M59.3792 18.3185L55.5407 27.9522L42.3362 42.7612H56.3084L59.3792 18.3185Z" fill="url(#paint1_linear_32_47)"/>
<path d="M59.3793 18.3185L63.2178 27.9522L76.4224 42.7612H62.4501L59.3793 18.3185Z" fill="url(#paint2_linear_32_47)"/>
<path d="M18.0383 23.2946L42.221 42.9602L55.464 28.0318L18.0383 23.2946Z" fill="url(#paint3_linear_32_47)"/>
<path d="M100.72 23.2946L76.5375 42.9602L63.2946 28.0318L100.72 23.2946Z" fill="url(#paint4_linear_32_47)"/>
<path d="M51.1648 42.5223L59.3792 18L67.8624 42.5223L59.3792 53.0717L51.1648 42.5223Z" fill="url(#paint5_linear_32_47)"/>
<path d="M148.039 64L124.279 32.128L126.631 30.4L150.391 62.224L148.039 64ZM123.559 64V30.4H126.631V32.608V64H123.559ZM148.039 64V30.4H151.111V64H148.039ZM177.002 64.576C173.834 64.576 171.018 63.84 168.554 62.368C166.122 60.896 164.202 58.848 162.794 56.224C161.418 53.6 160.73 50.592 160.73 47.2C160.73 43.776 161.418 40.768 162.794 38.176C164.17 35.552 166.058 33.504 168.458 32.032C170.89 30.56 173.69 29.824 176.858 29.824C180.026 29.824 182.826 30.576 185.258 32.08C187.69 33.552 189.578 35.6 190.922 38.224C192.298 40.816 192.986 43.808 192.986 47.2C192.986 50.592 192.298 53.6 190.922 56.224C189.578 58.848 187.706 60.896 185.306 62.368C182.906 63.84 180.138 64.576 177.002 64.576ZM177.002 61.792C179.53 61.792 181.754 61.168 183.674 59.92C185.626 58.672 187.146 56.96 188.234 54.784C189.354 52.576 189.914 50.048 189.914 47.2C189.914 44.352 189.354 41.84 188.234 39.664C187.114 37.456 185.578 35.728 183.626 34.48C181.674 33.232 179.418 32.608 176.858 32.608C174.33 32.608 172.074 33.232 170.09 34.48C168.138 35.728 166.602 37.456 165.482 39.664C164.362 41.84 163.802 44.352 163.802 47.2C163.802 50.048 164.362 52.576 165.482 54.784C166.602 56.96 168.154 58.672 170.138 59.92C172.154 61.168 174.442 61.792 177.002 61.792ZM205.681 50.272V47.44H213.745C215.025 47.44 216.177 47.136 217.201 46.528C218.257 45.92 219.105 45.088 219.745 44.032C220.385 42.944 220.705 41.712 220.705 40.336C220.705 38.224 219.969 36.512 218.497 35.2C217.057 33.856 215.201 33.184 212.929 33.184H205.681V30.4L212.929 30.352C215.041 30.32 216.913 30.736 218.545 31.6C220.177 32.464 221.441 33.648 222.337 35.152C223.265 36.656 223.729 38.384 223.729 40.336C223.729 42.256 223.217 43.968 222.193 45.472C221.201 46.976 219.841 48.16 218.113 49.024C216.385 49.856 214.449 50.272 212.305 50.272H205.681ZM202.609 64V30.4H205.681V64H202.609ZM221.713 64L213.553 50.08L216.097 48.592L225.073 64H221.713ZM241.304 64V33.184H244.376V64H241.304ZM230.36 33.184V30.4H255.32V33.184H230.36ZM286.426 64V30.4H289.498V64H286.426ZM263.002 64V30.4H266.074V64H263.002ZM266.074 48.064V45.28H286.426V48.064H266.074Z" fill="#686868"/>
<path d="M319.911 51.328L317.943 49.36L336.327 30.4H340.071L319.911 51.328ZM317.559 64V30.4H320.439V64H317.559ZM337.047 64L323.079 46.912L324.951 44.848L340.743 64H337.047ZM348.177 64V30.4H351.249V64H348.177ZM369.858 64V33.184H372.93V64H369.858ZM358.914 33.184V30.4H383.874V33.184H358.914ZM391.555 64V30.4H394.627V64H391.555ZM394.627 64V61.216H410.899V64H394.627ZM394.627 48.064V45.28H409.747V48.064H394.627ZM394.627 33.184V30.4H410.899V33.184H394.627Z" fill="#E2C354"/>
<defs>
<linearGradient id="paint0_linear_32_47" x1="59.3793" y1="18" x2="59.3793" y2="64.8949" gradientUnits="userSpaceOnUse">
<stop offset="0.25" stop-color="#E2C354"/>
<stop offset="1" stop-color="#E2C354" stop-opacity="0.33"/>
</linearGradient>
<linearGradient id="paint1_linear_32_47" x1="50.8577" y1="18.3185" x2="50.8577" y2="42.7612" gradientUnits="userSpaceOnUse">
<stop offset="0.25" stop-color="#E2C354"/>
<stop offset="1" stop-color="#E2C354" stop-opacity="0.33"/>
</linearGradient>
<linearGradient id="paint2_linear_32_47" x1="67.9008" y1="18.3185" x2="67.9008" y2="42.7612" gradientUnits="userSpaceOnUse">
<stop offset="0.25" stop-color="#E2C354"/>
<stop offset="1" stop-color="#E2C354" stop-opacity="0.33"/>
</linearGradient>
<linearGradient id="paint3_linear_32_47" x1="37.5764" y1="15.2134" x2="37.5764" y2="42.7611" gradientUnits="userSpaceOnUse">
<stop offset="0.25" stop-color="#E2C354"/>
<stop offset="1" stop-color="#E2C354" stop-opacity="0.33"/>
</linearGradient>
<linearGradient id="paint4_linear_32_47" x1="81.1821" y1="15.2134" x2="81.1821" y2="42.7611" gradientUnits="userSpaceOnUse">
<stop offset="0.25" stop-color="#E2C354"/>
<stop offset="1" stop-color="#E2C354" stop-opacity="0.33"/>
</linearGradient>
<linearGradient id="paint5_linear_32_47" x1="59.4176" y1="18" x2="59.4176" y2="51.0414" gradientUnits="userSpaceOnUse">
<stop offset="0.25" stop-color="#E2C354"/>
<stop offset="1" stop-color="#E2C354" stop-opacity="0.33"/>
</linearGradient>
</defs>
</svg>
